<svg width="47" height="44" viewBox="0 0 47 44" fill="none" xmlns="http://www.w3.org/2000/svg">
<path d="M12.8421 0H8.22535C6.30182 0 5.43362 2.52531 6.8172 3.86159C8.31416 5.30739 9.60826 6.80809 10.8918 8.55893C12.0931 10.1977 14.8421 9.42021 14.8421 7.38831V2C14.8421 0.895431 13.9467 0 12.8421 0Z" fill="#EEE5E0"/>
<path d="M7.21053 22.8293V19.2347C7.21053 17.2731 4.52765 16.3874 3.06026 17.6891C2.49492 18.1906 1.90243 18.659 1.25979 19.1196C-0.0592766 20.0651 0.0519266 22.1244 1.40747 23.0168C2.01806 23.4188 2.59281 23.8545 3.15686 24.3494C4.61786 25.6313 7.21053 24.7729 7.21053 22.8293Z" fill="#EEE5E0"/>
<path d="M14.8421 41.9655V36.0239C14.8421 34.0144 12.1375 33.2156 10.9288 34.821C9.33373 36.9395 7.80189 38.6583 6.04722 40.3946C4.7417 41.6865 5.6151 43.9655 7.45175 43.9655H12.8421C13.9467 43.9655 14.8421 43.0701 14.8421 41.9655Z" fill="#EEE5E0"/>
<path d="M46.5643 41.0757L28.0447 3.79784C27.2924 2.2837 25.1174 2.32807 24.4276 3.87163L21.2836 10.9063C21.0376 11.4568 21.0531 12.0888 21.3256 12.6266L36.6551 42.8697C36.9958 43.5419 37.6854 43.9655 38.439 43.9655H44.7732C46.2577 43.9655 47.2248 42.4052 46.5643 41.0757Z" fill="#EEE5E0"/>
</svg>
