<svg width="34" height="34" viewBox="0 0 34 34" fill="none" xmlns="http://www.w3.org/2000/svg">
<path d="M17 32C25.2842 32 32 25.2843 32 17C32 8.71576 25.2842 2 17 2C8.71576 2 2 8.71576 2 17C2 25.2843 8.71576 32 17 32Z" stroke="#E9E4E1" stroke-width="2.5" stroke-linecap="round" stroke-linejoin="round"/>
<path d="M2.75049 17.7499L11.0005 20.7499L9.50052 25.9999L11.0005 30.4999" stroke="#E9E4E1" stroke-width="2.5" stroke-linecap="round" stroke-linejoin="round"/>
<path d="M24.5 29.7499L23.75 25.9999L20 24.4999V19.2499L24.5 17.7499L31.25 18.4999" stroke="#E9E4E1" stroke-width="2.5" stroke-linecap="round" stroke-linejoin="round"/>
<path d="M27.5005 7.24988L26.7505 9.49991L21.5005 10.2499V14.7499L25.2505 13.2498H28.2505L31.2505 14.7499" stroke="#E9E4E1" stroke-width="2.5" stroke-linecap="round" stroke-linejoin="round"/>
<path d="M2.75049 14.7499L6.50049 11.7499L10.2505 10.9998L13.2505 6.49987L11.7505 3.49988" stroke="#E9E4E1" stroke-width="2.5" stroke-linecap="round" stroke-linejoin="round"/>
</svg>
